<svg xmlns="http://www.w3.org/2000/svg" version="1.1" viewBox="0.00 0.00 881.00 794.00">
<path fill="#ffffff" d="   M 218.25 36.83   L 455.74 36.97   L 694.02 36.88   L 695.61 37.03   L 697.06 37.50   L 698.19 38.14   L 699.21 39.00   L 771.19 111.10   L 772.10 112.32   L 772.41 113.53   L 772.10 114.75   L 771.19 115.96   L 698.95 188.29   L 698.94 188.30   L 697.96 189.06   L 696.84 189.56   L 695.54 189.86   L 693.99 189.97   L 186.35 189.97   L 184.60 189.87   L 183.34 189.54   L 182.18 188.88   L 180.95 187.80   L 110.37 117.13   L 108.33 114.69   L 108.04 113.92   L 108.01 113.09   L 108.25 112.30   L 108.73 111.63   L 181.76 38.32   L 183.23 37.33   L 184.97 36.97   L 218.25 36.83   Z"/>
<path fill="#ffffff" d="   M 451.74 651.50   L 527.90 520.02   L 707.52 210.29   L 708.06 209.63   L 708.85 209.04   L 711.21 208.12   L 809.63 181.92   L 811.08 181.75   L 812.24 182.08   L 813.10 182.92   L 813.67 184.26   L 839.79 282.36   L 840.09 283.97   L 840.11 285.43   L 839.55 287.74   L 838.17 290.49   L 584.22 728.48   L 583.00 729.91   L 582.10 730.49   L 581.05 730.88   L 482.67 756.85   L 481.24 757.13   L 479.72 757.23   L 479.06 757.12   L 478.47 756.81   L 478.02 756.32   L 477.74 755.71   L 451.22 656.56   L 450.94 654.57   L 451.20 652.75   L 451.74 651.50   Z"/>
<path fill="#ffffff" d="   M 330.32 480.83   L 426.18 646.23   L 427.29 648.04   L 429.20 651.46   L 429.70 652.91   L 429.92 654.26   L 429.91 655.64   L 429.63 657.14   L 404.77 750.18   L 402.70 756.67   L 402.40 757.07   L 401.93 757.24   L 400.34 757.21   L 398.81 756.94   L 398.81 756.94   L 398.74 756.92   L 300.10 730.88   L 298.35 730.09   L 297.39 729.25   L 296.60 728.16   L 43.42 291.45   L 42.73 290.30   L 41.51 288.12   L 40.96 286.37   L 40.90 284.74   L 41.20 283.03   L 67.29 184.41   L 67.89 182.99   L 68.81 182.11   L 70.03 181.76   L 71.56 181.94   L 170.26 208.24   L 171.49 208.75   L 172.64 209.57   L 173.63 210.61   L 174.37 211.77   L 330.32 480.83   Z"/>
</svg>