<svg xmlns="http://www.w3.org/2000/svg" version="1.1" viewBox="0.00 0.00 945.00 848.00">
<path fill="#000000" d="   M 804.33 117.80   L 730.22 191.99   Q 729.27 192.95 727.83 192.95   L 216.48 192.95   A 3.48 3.44 -22.3 0 1 214.03 191.94   L 140.14 117.91   A 1.94 1.93 45.0 0 1 140.13 115.18   L 214.01 41.06   A 4.16 4.15 -67.6 0 1 216.96 39.83   L 727.31 39.82   A 4.37 4.34 67.5 0 1 730.40 41.11   Q 765.15 75.83 802.47 113.28   Q 803.66 114.48 804.47 115.52   A 1.73 1.73 0.0 0 1 804.33 117.80   Z"/>
<path fill="#000000" d="   M 300.14 779.13   C 214.91 632.33 129.82 485.44 44.69 338.58   Q 43.62 336.73 43.73 335.13   Q 43.86 333.36 44.34 331.57   Q 57.24 283.42 70.66 232.95   A 1.78 1.77 7.6 0 1 72.39 231.63   Q 73.54 231.64 74.70 231.95   Q 124.59 245.32 173.96 258.40   A 4.38 4.35 82.1 0 1 176.60 260.41   Q 304.34 480.69 432.38 701.59   Q 433.58 703.66 432.96 705.97   Q 420.39 752.96 407.77 800.24   Q 406.87 803.60 405.95 806.60   Q 405.54 807.92 404.19 807.57   L 302.12 780.64   A 3.26 3.22 82.0 0 1 300.14 779.13   Z"/>
<path fill="#000000" d="   M 512.51 700.18   C 597.17 554.28 682.04 407.68 767.06 261.52   Q 768.42 259.19 770.81 258.55   Q 821.01 245.21 871.22 231.85   A 2.15 2.14 -14.8 0 1 873.85 233.37   L 900.68 334.14   A 4.19 4.17 52.6 0 1 900.26 337.32   L 643.73 779.61   Q 643.14 780.63 641.99 780.93   L 540.61 807.67   Q 538.58 808.21 538.04 806.18   Q 524.36 754.92 511.19 705.62   C 510.59 703.36 511.43 702.03 512.51 700.18   Z"/>
</svg>