<?xml version="1.0" encoding="UTF-8" standalone="no"?>
<!DOCTYPE svg PUBLIC "-//W3C//DTD SVG 1.1//EN" "http://www.w3.org/Graphics/SVG/1.1/DTD/svg11.dtd">
<svg xmlns="http://www.w3.org/2000/svg" version="1.1" viewBox="0.00 0.00 2261.00 483.00">
<path fill="#000000" d="
  M 201.82 23.39
  Q 203.26 23.09 204.73 23.09
  Q 349.09 23.10 493.12 23.08
  A 3.75 3.74 67.6 0 1 495.78 24.19
  L 537.54 66.00
  A 1.12 1.12 0.0 0 1 537.54 67.59
  L 495.56 109.60
  Q 494.96 110.19 494.13 110.25
  Q 490.29 110.55 485.66 110.54
  Q 347.03 110.39 204.02 110.49
  Q 201.64 110.50 199.78 108.61
  Q 179.51 88.13 159.39 68.08
  Q 158.19 66.88 159.39 65.68
  L 201.04 23.82
  A 1.61 1.57 -73.2 0 1 201.82 23.39
  Z"
/>
<path fill="#000000" d="
  M 2108.62 434.49
  C 2095.97 445.60 2081.93 452.96 2066.18 456.14
  Q 2058.80 457.64 2047.09 457.59
  Q 1996.87 457.37 1944.20 457.58
  Q 1935.01 457.62 1928.22 456.44
  C 1913.72 453.92 1899.10 446.72 1887.86 437.40
  Q 1870.05 422.63 1855.59 406.63
  Q 1851.40 402.00 1847.67 396.68
  C 1839.21 384.65 1836.87 371.30 1836.87 356.84
  Q 1836.81 235.96 1836.84 121.84
  C 1836.84 114.93 1837.64 107.58 1839.28 100.99
  Q 1842.48 88.11 1853.52 75.45
  Q 1868.28 58.51 1885.06 43.97
  C 1895.83 34.63 1905.92 29.12 1919.26 24.73
  Q 1924.77 22.92 1929.00 22.92
  Q 1997.50 23.06 2066.00 23.11
  Q 2067.30 23.11 2068.48 23.39
  Q 2091.24 28.79 2107.67 43.85
  Q 2117.64 52.97 2128.09 63.95
  Q 2139.72 76.16 2145.53 84.51
  C 2151.97 93.76 2154.94 104.58 2156.27 115.93
  Q 2156.79 120.41 2156.79 125.25
  Q 2156.66 242.76 2156.76 355.96
  Q 2156.76 363.72 2154.77 373.14
  C 2152.10 385.83 2146.34 395.72 2137.89 405.38
  Q 2125.04 420.07 2108.62 434.49
  Z
  M 1925.02 392.29
  C 1931.08 397.36 1937.25 401.73 1944.86 401.73
  Q 1996.28 401.73 2047.13 401.77
  C 2052.49 401.78 2056.75 400.89 2061.39 397.67
  Q 2074.70 388.44 2086.95 375.36
  C 2091.62 370.37 2096.97 363.68 2097.51 356.65
  Q 2097.79 353.01 2097.79 348.72
  Q 2097.60 243.46 2097.76 124.24
  C 2097.76 118.39 2093.62 112.71 2089.73 108.11
  Q 2079.12 95.58 2065.49 84.62
  C 2060.93 80.96 2056.21 77.53 2050.23 77.52
  Q 1996.41 77.46 1942.96 77.52
  C 1936.74 77.53 1930.57 82.31 1925.85 86.16
  Q 1913.03 96.62 1903.98 107.24
  C 1899.42 112.59 1895.50 118.43 1895.49 125.67
  Q 1895.45 240.67 1895.51 354.71
  C 1895.51 361.25 1899.49 366.68 1903.58 371.36
  C 1910.07 378.75 1917.51 386.01 1925.02 392.29
  Z"
/>
<path fill="#000000" d="
  M 799.01 397.66
  A 0.70 0.70 0.0 0 0 799.64 398.06
  Q 890.80 398.23 984.75 398.07
  Q 991.32 398.06 997.79 398.35
  Q 999.89 398.45 999.89 400.55
  L 999.94 451.81
  Q 999.95 453.99 997.76 454.00
  L 723.71 454.02
  A 1.57 1.57 0.0 0 1 722.14 452.45
  L 722.10 410.49
  A 4.29 4.24 -29.2 0 1 722.75 408.23
  L 928.12 83.16
  A 1.18 1.18 0.0 0 0 928.25 82.18
  Q 927.91 81.11 926.50 81.11
  Q 825.39 81.03 723.85 81.01
  A 1.74 1.74 0.0 0 1 722.11 79.27
  L 722.15 26.46
  Q 722.15 25.06 723.54 25.06
  L 997.76 25.06
  A 2.02 2.02 0.0 0 1 999.78 27.05
  Q 1000.08 47.64 999.91 68.76
  Q 999.89 71.36 998.54 73.54
  Q 898.88 234.51 799.27 395.51
  Q 798.54 396.68 799.01 397.66
  Z"
/>
<path fill="#000000" d="
  M 1491.29 275.36
  Q 1489.69 276.03 1489.68 277.71
  Q 1489.35 357.58 1489.56 443.12
  Q 1489.57 447.32 1489.47 452.31
  A 1.73 1.73 0.0 0 1 1487.74 454.00
  L 1433.22 454.00
  Q 1430.82 454.00 1430.82 451.60
  Q 1430.69 231.44 1430.88 31.73
  Q 1430.88 29.37 1431.10 26.36
  A 0.87 0.87 0.0 0 1 1431.91 25.55
  Q 1439.32 25.04 1446.03 25.05
  Q 1534.07 25.11 1624.03 24.96
  Q 1635.58 24.94 1644.15 25.93
  Q 1668.99 28.80 1689.56 47.78
  Q 1700.92 58.26 1710.34 68.41
  Q 1727.23 86.60 1729.73 110.53
  Q 1730.34 116.31 1730.26 130.47
  Q 1730.11 155.35 1730.18 178.76
  C 1730.20 185.58 1729.98 192.32 1728.44 199.00
  Q 1724.13 217.70 1710.65 232.29
  Q 1698.57 245.36 1686.85 255.64
  C 1676.60 264.63 1663.79 272.11 1650.49 273.54
  A 1.59 1.59 0.0 0 0 1649.28 275.92
  L 1751.74 452.76
  A 0.83 0.83 0.0 0 1 1751.02 454.00
  L 1690.82 454.00
  A 3.61 3.59 -14.6 0 1 1687.68 452.17
  L 1589.20 277.55
  Q 1587.90 275.25 1585.27 275.25
  L 1491.75 275.26
  A 1.12 1.10 -56.8 0 0 1491.29 275.36
  Z
  M 1645.95 86.05
  C 1642.46 83.22 1638.34 81.03 1633.77 81.03
  Q 1564.00 81.00 1491.70 81.05
  A 2.00 1.99 -88.5 0 0 1489.71 82.94
  Q 1489.57 85.87 1489.56 88.97
  Q 1489.44 152.93 1489.65 217.10
  Q 1489.65 219.53 1492.08 219.53
  Q 1558.55 219.57 1627.40 219.59
  Q 1633.62 219.59 1637.29 218.31
  Q 1642.90 216.37 1648.24 212.51
  C 1656.39 206.63 1663.73 200.20 1669.32 192.03
  C 1671.75 188.50 1671.38 182.92 1671.39 178.99
  Q 1671.45 152.09 1671.43 124.28
  Q 1671.43 119.51 1671.14 114.83
  C 1670.98 112.29 1669.65 110.31 1668.12 108.41
  Q 1657.75 95.58 1645.95 86.05
  Z"
/>
<path fill="#000000" d="
  M 249.80 443.95
  C 201.41 360.80 153.23 277.52 105.04 194.24
  Q 103.63 191.80 104.24 189.50
  Q 112.00 160.73 119.19 133.89
  A 1.84 1.84 0.0 0 1 121.44 132.58
  Q 150.11 140.13 177.26 147.43
  Q 179.26 147.97 180.27 149.71
  Q 252.69 274.62 325.50 400.25
  A 3.65 3.65 0.0 0 1 325.87 403.00
  L 310.72 459.70
  A 1.39 1.38 -75.1 0 1 309.03 460.68
  L 251.99 445.62
  A 3.60 3.59 82.2 0 1 249.80 443.95
  Z"
/>
<path fill="#000000" d="
  M 592.02 193.03
  L 446.43 444.16
  A 3.54 3.53 -82.1 0 1 444.27 445.80
  L 387.58 460.72
  A 1.60 1.60 0.0 0 1 385.63 459.59
  L 370.44 402.73
  Q 370.10 401.43 370.77 400.26
  Q 442.40 276.61 516.03 149.86
  C 517.10 148.02 518.34 147.82 520.25 147.31
  Q 546.71 140.22 574.91 132.79
  Q 576.86 132.28 577.38 134.23
  L 592.36 190.51
  Q 592.72 191.84 592.02 193.03
  Z"
/>
<path fill="#000000" d="
  M 1131.75 324.00
  A 1.70 1.69 0.0 0 0 1130.05 325.69
  Q 1130.01 346.66 1130.04 367.91
  Q 1130.05 372.89 1133.25 377.73
  Q 1140.55 388.76 1152.12 397.66
  C 1157.70 401.96 1163.46 405.17 1170.35 405.20
  Q 1206.23 405.37 1242.09 405.21
  C 1245.62 405.19 1249.85 403.83 1252.79 401.92
  Q 1273.62 388.38 1282.94 369.06
  Q 1284.09 366.66 1286.58 367.46
  Q 1309.63 374.88 1334.99 383.31
  A 1.55 1.55 0.0 0 1 1335.91 385.44
  Q 1325.95 406.68 1309.29 425.32
  C 1300.04 435.67 1289.23 444.75 1276.70 450.41
  C 1264.77 455.80 1251.63 457.66 1238.15 457.58
  Q 1205.04 457.40 1172.82 457.57
  C 1154.74 457.66 1137.58 454.48 1122.97 444.71
  C 1109.75 435.86 1096.93 422.99 1087.48 410.43
  Q 1077.86 397.65 1075.53 383.23
  C 1073.99 373.68 1074.12 362.84 1074.11 352.08
  Q 1074.06 292.95 1074.14 234.00
  C 1074.14 227.23 1074.67 219.47 1076.22 213.08
  C 1079.32 200.32 1085.40 191.00 1094.36 180.83
  Q 1102.76 171.29 1112.47 163.01
  Q 1121.08 155.66 1128.76 151.62
  C 1141.50 144.91 1156.39 142.23 1170.98 142.17
  Q 1200.58 142.04 1240.20 142.18
  C 1259.74 142.25 1278.17 146.63 1293.66 158.77
  Q 1310.98 172.34 1323.49 188.77
  Q 1333.81 202.34 1335.76 220.22
  C 1336.27 224.93 1336.50 230.02 1336.51 234.90
  Q 1336.58 282.43 1336.51 321.71
  Q 1336.50 324.00 1334.22 324.00
  L 1131.75 324.00
  Z
  M 1131.42 225.39
  Q 1130.04 228.15 1130.04 231.18
  Q 1130.01 252.10 1130.08 271.37
  A 1.65 1.64 0.0 0 0 1131.73 273.01
  L 1279.21 273.02
  A 1.59 1.59 0.0 0 0 1280.80 271.43
  Q 1280.88 249.86 1280.76 230.00
  C 1280.73 224.61 1276.94 219.93 1273.48 216.21
  Q 1263.99 206.01 1251.93 198.24
  C 1248.78 196.21 1244.84 194.72 1241.13 194.72
  Q 1205.32 194.66 1168.80 194.69
  Q 1165.37 194.70 1162.47 196.20
  C 1149.63 202.84 1137.94 212.27 1131.42 225.39
  Z"
/>
</svg>
